<svg width="86" height="112" viewBox="0 0 86 112" fill="none" xmlns="http://www.w3.org/2000/svg">
<path d="M43 1C66.1655 1 85 19.6954 85 42.6562C85 57.8084 78.1595 66.5396 65.249 82.918C59.7195 89.9328 52.8236 98.6809 44.8984 110.016C44.4686 110.63 43.7601 111 43 111C42.2399 111 41.5314 110.63 41.1016 110.016C33.094 98.5628 26.168 89.7826 20.6143 82.7422C7.79313 66.4889 1 57.825 1 42.6562C1 19.6954 19.8345 1 43 1Z" fill="url(#paint0_linear_512_106)" stroke="url(#paint1_linear_512_106)" stroke-width="2"/>
<path d="M43 66C30.3178 66 20 55.6822 20 43C20 30.3178 30.3178 20 43 20C55.6822 20 66 30.3178 66 43C66 55.6822 55.6822 66 43 66Z" fill="white"/>
<defs>
<linearGradient id="paint0_linear_512_106" x1="43" y1="-42.8025" x2="43" y2="149.452" gradientUnits="userSpaceOnUse">
<stop offset="0.630208" stop-color="#FFAE00"/>
<stop offset="1" stop-color="#FFCD1E"/>
</linearGradient>
<linearGradient id="paint1_linear_512_106" x1="43" y1="0" x2="43" y2="112" gradientUnits="userSpaceOnUse">
<stop stop-color="#FF9F00"/>
<stop offset="1" stop-color="#FFB800"/>
</linearGradient>
</defs>
</svg>
